G75*
G70*
%OFA0B0*%
%FSLAX24Y24*%
%IPPOS*%
%LPD*%
%AMOC8*
5,1,8,0,0,1.08239X$1,22.5*
%
%ADD10R,0.0820X0.0820*%
%ADD11OC8,0.0820*%
%ADD12C,0.1780*%
%ADD13C,0.0820*%
%ADD14OC8,0.0680*%
%ADD15C,0.0965*%
%ADD16C,0.0980*%
%ADD17C,0.0634*%
%ADD18C,0.0476*%
%ADD19C,0.1582*%
D10*
X001286Y009681D03*
X001286Y013984D03*
X001286Y018287D03*
X001286Y022591D03*
X001286Y026894D03*
X013767Y016370D03*
D11*
X013767Y015370D03*
X012767Y015370D03*
X012767Y016370D03*
X011767Y016370D03*
X011767Y015370D03*
D12*
X007503Y005894D03*
X007503Y003531D03*
X009353Y004713D03*
D13*
X001286Y006681D03*
X001286Y007681D03*
X001286Y008681D03*
X001286Y010984D03*
X001286Y011984D03*
X001286Y012984D03*
X001286Y015287D03*
X001286Y016287D03*
X001286Y017287D03*
X001286Y019591D03*
X001286Y020591D03*
X001286Y021591D03*
X001286Y023894D03*
X001286Y024894D03*
X001286Y025894D03*
X016849Y024638D03*
X017849Y024638D03*
X018849Y024638D03*
X019849Y024638D03*
X020849Y024638D03*
X020849Y017748D03*
X019849Y017748D03*
X018849Y017748D03*
X017849Y017748D03*
X016849Y017748D03*
D14*
X020552Y016079D03*
X020552Y014299D03*
D15*
X019572Y013809D03*
X019572Y016569D03*
D16*
X004511Y003378D03*
X004511Y005134D03*
D17*
X004062Y018512D03*
X005062Y018512D03*
X006062Y018512D03*
X007062Y018512D03*
X008062Y018512D03*
X009062Y018512D03*
X010062Y018512D03*
X011062Y018512D03*
X012062Y018512D03*
X013062Y018512D03*
X014062Y018512D03*
X015062Y018512D03*
X015062Y021512D03*
X014062Y021512D03*
X013062Y021512D03*
X012062Y021512D03*
X011062Y021512D03*
X010062Y021512D03*
X009062Y021512D03*
X008062Y021512D03*
X007062Y021512D03*
X006062Y021512D03*
X005062Y021512D03*
X004062Y021512D03*
D18*
X002739Y022472D03*
X003192Y024894D03*
X005101Y015976D03*
X005593Y015091D03*
X007660Y015287D03*
X008349Y016272D03*
X010219Y016272D03*
X010318Y015189D03*
X010975Y012563D03*
X010349Y012138D03*
X009727Y011843D03*
X009334Y010673D03*
X009727Y010268D03*
X010416Y010268D03*
X011007Y009771D03*
X009727Y008594D03*
X008940Y011350D03*
X008054Y012236D03*
X007267Y010661D03*
X007365Y009776D03*
X006184Y008594D03*
X003330Y007709D03*
X003330Y006921D03*
X013566Y011449D03*
X014156Y012236D03*
X014353Y013909D03*
X015042Y013909D03*
X015534Y013122D03*
X013566Y014106D03*
X015436Y016567D03*
X016026Y016075D03*
X019078Y012827D03*
X019176Y009972D03*
X017306Y008693D03*
X016322Y008594D03*
X014845Y004657D03*
X021341Y013024D03*
X019767Y020799D03*
X020849Y021980D03*
X020160Y022374D03*
X021341Y023063D03*
X017652Y020752D03*
X013763Y026016D03*
X013074Y023654D03*
D19*
X017480Y028246D03*
X004980Y028246D03*
X004979Y006996D03*
X017479Y006996D03*
M02*
