G75*
G70*
%OFA0B0*%
%FSLAX24Y24*%
%IPPOS*%
%LPD*%
%AMOC8*
5,1,8,0,0,1.08239X$1,22.5*
%
%ADD10C,0.0160*%
%ADD11C,0.0050*%
%ADD12C,0.0120*%
%ADD13C,0.0100*%
%ADD14C,0.0000*%
%ADD15C,0.0080*%
%ADD16C,0.0010*%
%ADD17C,0.0040*%
%ADD18R,0.0300X0.0180*%
%ADD19C,0.0220*%
%ADD20C,0.0060*%
%ADD21R,0.0180X0.0300*%
D10*
X003330Y002197D02*
X003330Y005346D01*
X000180Y005346D01*
X000180Y029896D02*
X003330Y029896D01*
X003330Y033046D01*
X018684Y033046D02*
X018684Y029896D01*
X021735Y029896D01*
X021834Y005346D02*
X018684Y005346D01*
X018684Y002197D01*
D11*
X019884Y005688D02*
X021004Y005688D01*
X021004Y007369D01*
X019884Y007369D01*
X019884Y005688D01*
X020456Y006350D02*
X020456Y006469D01*
X020377Y006469D01*
X020456Y006469D02*
X020534Y006469D01*
X020456Y006508D02*
X020534Y006626D01*
X020377Y006626D01*
X020456Y006508D01*
X020456Y006665D02*
X020456Y006705D01*
X020613Y006547D02*
X020692Y006469D01*
X020692Y006508D01*
X020692Y006469D02*
X020652Y006469D01*
X021018Y006333D02*
X021045Y006335D01*
X021071Y006340D01*
X021096Y006349D01*
X021120Y006362D01*
X021142Y006377D01*
X021162Y006396D01*
X021179Y006416D01*
X021193Y006439D01*
X021204Y006464D01*
X021211Y006490D01*
X021215Y006517D01*
X021215Y006543D01*
X021211Y006570D01*
X021204Y006596D01*
X021193Y006621D01*
X021179Y006644D01*
X021162Y006664D01*
X021142Y006683D01*
X021120Y006698D01*
X021096Y006711D01*
X021071Y006720D01*
X021045Y006725D01*
X021018Y006727D01*
X020979Y007446D02*
X020979Y007797D01*
X021154Y007797D01*
X021213Y007738D01*
X021213Y007621D01*
X021154Y007563D01*
X020979Y007563D01*
X020844Y007505D02*
X020844Y007738D01*
X020786Y007797D01*
X020611Y007797D01*
X020611Y007446D01*
X020786Y007446D01*
X020844Y007505D01*
X020476Y007446D02*
X020243Y007446D01*
X020243Y007797D01*
X020476Y007797D01*
X020359Y007621D02*
X020243Y007621D01*
X020108Y007446D02*
X019874Y007446D01*
X019874Y007797D01*
X019884Y008345D02*
X021004Y008345D01*
X021004Y010026D01*
X019884Y010026D01*
X019884Y008345D01*
X020456Y009008D02*
X020456Y009126D01*
X020377Y009126D01*
X020456Y009126D02*
X020534Y009126D01*
X020456Y009165D02*
X020534Y009283D01*
X020377Y009283D01*
X020456Y009165D01*
X020456Y009323D02*
X020456Y009362D01*
X020613Y009205D02*
X020692Y009126D01*
X020692Y009165D01*
X020692Y009126D02*
X020652Y009126D01*
X021018Y008991D02*
X021045Y008993D01*
X021071Y008998D01*
X021096Y009007D01*
X021120Y009020D01*
X021142Y009035D01*
X021162Y009054D01*
X021179Y009074D01*
X021193Y009097D01*
X021204Y009122D01*
X021211Y009148D01*
X021215Y009175D01*
X021215Y009201D01*
X021211Y009228D01*
X021204Y009254D01*
X021193Y009279D01*
X021179Y009302D01*
X021162Y009322D01*
X021142Y009341D01*
X021120Y009356D01*
X021096Y009369D01*
X021071Y009378D01*
X021045Y009383D01*
X021018Y009385D01*
X020979Y010104D02*
X021213Y010454D01*
X020979Y010454D02*
X021213Y010104D01*
X020844Y010162D02*
X020844Y010396D01*
X020786Y010454D01*
X020611Y010454D01*
X020611Y010104D01*
X020786Y010104D01*
X020844Y010162D01*
X020476Y010104D02*
X020243Y010104D01*
X020243Y010454D01*
X020476Y010454D01*
X020359Y010279D02*
X020243Y010279D01*
X020108Y010104D02*
X019874Y010104D01*
X019874Y010454D01*
X019884Y011002D02*
X021004Y011002D01*
X021004Y012684D01*
X019884Y012684D01*
X019884Y011002D01*
X020456Y011665D02*
X020456Y011783D01*
X020377Y011783D01*
X020456Y011783D02*
X020534Y011783D01*
X020456Y011823D02*
X020534Y011941D01*
X020377Y011941D01*
X020456Y011823D01*
X020456Y011980D02*
X020456Y012020D01*
X020613Y011862D02*
X020692Y011783D01*
X020692Y011823D01*
X020692Y011783D02*
X020652Y011783D01*
X021018Y011648D02*
X021045Y011650D01*
X021071Y011655D01*
X021096Y011664D01*
X021120Y011677D01*
X021142Y011692D01*
X021162Y011711D01*
X021179Y011731D01*
X021193Y011754D01*
X021204Y011779D01*
X021211Y011805D01*
X021215Y011832D01*
X021215Y011858D01*
X021211Y011885D01*
X021204Y011911D01*
X021193Y011936D01*
X021179Y011959D01*
X021162Y011979D01*
X021142Y011998D01*
X021120Y012013D01*
X021096Y012026D01*
X021071Y012035D01*
X021045Y012040D01*
X021018Y012042D01*
X020979Y012761D02*
X020979Y013112D01*
X021096Y012995D01*
X021213Y013112D01*
X021213Y012761D01*
X020844Y012820D02*
X020844Y013053D01*
X020786Y013112D01*
X020611Y013112D01*
X020611Y012761D01*
X020786Y012761D01*
X020844Y012820D01*
X020476Y012761D02*
X020243Y012761D01*
X020243Y013112D01*
X020476Y013112D01*
X020359Y012936D02*
X020243Y012936D01*
X020108Y012761D02*
X019874Y012761D01*
X019874Y013112D01*
X018753Y012258D02*
X018402Y012258D01*
X018577Y012083D01*
X018577Y012316D01*
X018577Y011948D02*
X018461Y011948D01*
X018402Y011890D01*
X018402Y011714D01*
X018753Y011714D01*
X018636Y011714D02*
X018636Y011890D01*
X018577Y011948D01*
X018636Y011831D02*
X018753Y011948D01*
X018596Y009659D02*
X018537Y009659D01*
X018479Y009600D01*
X018479Y009425D01*
X018596Y009425D01*
X018654Y009484D01*
X018654Y009600D01*
X018596Y009659D01*
X018362Y009542D02*
X018479Y009425D01*
X018479Y009290D02*
X018537Y009232D01*
X018537Y009057D01*
X018537Y009174D02*
X018654Y009290D01*
X018479Y009290D02*
X018362Y009290D01*
X018304Y009232D01*
X018304Y009057D01*
X018654Y009057D01*
X018362Y009542D02*
X018304Y009659D01*
X018501Y007001D02*
X018501Y006768D01*
X018676Y006768D01*
X018618Y006884D01*
X018618Y006943D01*
X018676Y007001D01*
X018793Y007001D01*
X018851Y006943D01*
X018851Y006826D01*
X018793Y006768D01*
X018851Y006633D02*
X018734Y006516D01*
X018734Y006575D02*
X018734Y006399D01*
X018851Y006399D02*
X018501Y006399D01*
X018501Y006575D01*
X018559Y006633D01*
X018676Y006633D01*
X018734Y006575D01*
X014856Y003507D02*
X014856Y003273D01*
X014622Y003507D01*
X014564Y003507D01*
X014505Y003448D01*
X014505Y003332D01*
X014564Y003273D01*
X014564Y003138D02*
X014505Y003080D01*
X014505Y002963D01*
X014564Y002905D01*
X014797Y002905D01*
X014856Y002963D01*
X014856Y003080D01*
X014797Y003138D01*
X013607Y006785D02*
X013607Y006902D01*
X013607Y006843D02*
X013257Y006843D01*
X013257Y006785D02*
X013257Y006902D01*
X013316Y007030D02*
X013549Y007030D01*
X013607Y007089D01*
X013607Y007206D01*
X013549Y007264D01*
X013607Y007399D02*
X013374Y007632D01*
X013316Y007632D01*
X013257Y007574D01*
X013257Y007457D01*
X013316Y007399D01*
X013316Y007264D02*
X013257Y007206D01*
X013257Y007089D01*
X013316Y007030D01*
X013607Y007399D02*
X013607Y007632D01*
X011633Y007339D02*
X011633Y007142D01*
X011613Y007140D01*
X011593Y007135D01*
X011574Y007126D01*
X011557Y007114D01*
X011543Y007100D01*
X011531Y007083D01*
X011522Y007064D01*
X011517Y007044D01*
X011515Y007024D01*
X011517Y007004D01*
X011522Y006984D01*
X011531Y006965D01*
X011543Y006948D01*
X011557Y006934D01*
X011574Y006922D01*
X011593Y006913D01*
X011613Y006908D01*
X011633Y006906D01*
X011633Y006709D01*
X011397Y006709D01*
X011397Y007339D01*
X011633Y007339D01*
X011397Y007339D02*
X010609Y007339D01*
X010609Y006709D01*
X010373Y006709D01*
X010373Y006906D01*
X010393Y006908D01*
X010413Y006913D01*
X010432Y006922D01*
X010449Y006934D01*
X010463Y006948D01*
X010475Y006965D01*
X010484Y006984D01*
X010489Y007004D01*
X010491Y007024D01*
X010489Y007044D01*
X010484Y007064D01*
X010475Y007083D01*
X010463Y007100D01*
X010449Y007114D01*
X010432Y007126D01*
X010413Y007135D01*
X010393Y007140D01*
X010373Y007142D01*
X010373Y007339D01*
X010609Y007339D01*
X010610Y007734D02*
X010610Y007850D01*
X010785Y007734D02*
X010435Y007734D01*
X010435Y007967D01*
X010551Y008102D02*
X010435Y008219D01*
X010785Y008219D01*
X010785Y008102D02*
X010785Y008336D01*
X010609Y006709D02*
X011397Y006709D01*
X010232Y003536D02*
X010232Y003303D01*
X010232Y003420D02*
X009881Y003420D01*
X009998Y003303D01*
X009940Y003168D02*
X009881Y003110D01*
X009881Y002993D01*
X009940Y002934D01*
X010173Y002934D01*
X010232Y002993D01*
X010232Y003110D01*
X010173Y003168D01*
X008976Y007680D02*
X008626Y007680D01*
X008626Y007855D01*
X008684Y007913D01*
X008917Y007913D01*
X008976Y007855D01*
X008976Y007680D01*
X008976Y008048D02*
X008976Y008282D01*
X008976Y008165D02*
X008626Y008165D01*
X008742Y008048D01*
X010819Y010424D02*
X011111Y010424D01*
X011169Y010483D01*
X011169Y010599D01*
X011111Y010658D01*
X010819Y010658D01*
X010877Y010793D02*
X010819Y010851D01*
X010819Y010968D01*
X010877Y011026D01*
X010936Y011026D01*
X011169Y010793D01*
X011169Y011026D01*
X011580Y013406D02*
X011521Y013465D01*
X011521Y013582D01*
X011580Y013640D01*
X011813Y013640D01*
X011872Y013582D01*
X011872Y013465D01*
X011813Y013406D01*
X011580Y013406D01*
X011755Y013523D02*
X011872Y013640D01*
X011872Y013775D02*
X011872Y014008D01*
X011872Y013892D02*
X011521Y013892D01*
X011638Y013775D01*
X010966Y015155D02*
X010966Y015272D01*
X010966Y015213D02*
X010616Y015213D01*
X010616Y015155D02*
X010616Y015272D01*
X010675Y015400D02*
X010908Y015400D01*
X010966Y015459D01*
X010966Y015576D01*
X010908Y015634D01*
X010908Y015769D02*
X010966Y015827D01*
X010966Y015944D01*
X010908Y016002D01*
X010850Y016002D01*
X010791Y015944D01*
X010791Y015827D01*
X010733Y015769D01*
X010675Y015769D01*
X010616Y015827D01*
X010616Y015944D01*
X010675Y016002D01*
X010616Y016137D02*
X010616Y016312D01*
X010675Y016371D01*
X010791Y016371D01*
X010850Y016312D01*
X010850Y016137D01*
X010966Y016137D02*
X010616Y016137D01*
X010675Y015634D02*
X010616Y015576D01*
X010616Y015459D01*
X010675Y015400D01*
X009792Y015447D02*
X009675Y015330D01*
X009675Y015388D02*
X009675Y015213D01*
X009792Y015213D02*
X009442Y015213D01*
X009442Y015388D01*
X009500Y015447D01*
X009617Y015447D01*
X009675Y015388D01*
X009558Y015581D02*
X009442Y015698D01*
X009792Y015698D01*
X009792Y015581D02*
X009792Y015815D01*
X009066Y015755D02*
X009066Y015639D01*
X009008Y015580D01*
X009008Y015446D02*
X009066Y015387D01*
X009066Y015270D01*
X009008Y015212D01*
X008775Y015212D01*
X008716Y015270D01*
X008716Y015387D01*
X008775Y015446D01*
X008775Y015580D02*
X008716Y015639D01*
X008716Y015755D01*
X008775Y015814D01*
X008833Y015814D01*
X008891Y015755D01*
X008950Y015814D01*
X009008Y015814D01*
X009066Y015755D01*
X008891Y015755D02*
X008891Y015697D01*
X008453Y015795D02*
X008453Y015562D01*
X008220Y015795D01*
X008162Y015795D01*
X008103Y015737D01*
X008103Y015620D01*
X008162Y015562D01*
X008162Y015427D02*
X008278Y015427D01*
X008337Y015369D01*
X008337Y015193D01*
X008453Y015193D02*
X008103Y015193D01*
X008103Y015369D01*
X008162Y015427D01*
X008337Y015310D02*
X008453Y015427D01*
X008334Y014377D02*
X008334Y014143D01*
X008334Y014260D02*
X007984Y014260D01*
X008101Y014143D01*
X007984Y014009D02*
X008276Y014009D01*
X008334Y013950D01*
X008334Y013833D01*
X008276Y013775D01*
X007984Y013775D01*
X007234Y015151D02*
X007292Y015210D01*
X007292Y015327D01*
X007234Y015385D01*
X007117Y015520D02*
X007117Y015753D01*
X007292Y015695D02*
X006942Y015695D01*
X007117Y015520D01*
X007000Y015385D02*
X006942Y015327D01*
X006942Y015210D01*
X007000Y015151D01*
X007234Y015151D01*
X006512Y015163D02*
X006162Y015163D01*
X006162Y015338D01*
X006221Y015397D01*
X006337Y015397D01*
X006396Y015338D01*
X006396Y015163D01*
X006396Y015280D02*
X006512Y015397D01*
X006454Y015532D02*
X006512Y015590D01*
X006512Y015707D01*
X006454Y015765D01*
X006396Y015765D01*
X006337Y015707D01*
X006337Y015648D01*
X006337Y015707D02*
X006279Y015765D01*
X006221Y015765D01*
X006162Y015707D01*
X006162Y015590D01*
X006221Y015532D01*
X005506Y017576D02*
X005272Y017576D01*
X005506Y017810D01*
X005506Y017868D01*
X005447Y017926D01*
X005331Y017926D01*
X005272Y017868D01*
X005138Y017751D02*
X004904Y017751D01*
X004769Y017576D02*
X004536Y017576D01*
X004652Y017576D02*
X004652Y017926D01*
X004536Y017810D01*
X003982Y017868D02*
X003982Y017751D01*
X003923Y017693D01*
X003748Y017693D01*
X003748Y017576D02*
X003748Y017926D01*
X003923Y017926D01*
X003982Y017868D01*
X003865Y017693D02*
X003982Y017576D01*
X003133Y018087D02*
X015991Y018087D01*
X015991Y021937D01*
X003133Y021937D01*
X003133Y018087D01*
X002911Y017996D02*
X002911Y017821D01*
X002561Y017821D01*
X002561Y017996D01*
X002619Y018054D01*
X002853Y018054D01*
X002911Y017996D01*
X002853Y018189D02*
X002911Y018247D01*
X002911Y018364D01*
X002853Y018423D01*
X002794Y018423D01*
X002736Y018364D01*
X002736Y018306D01*
X002736Y018364D02*
X002677Y018423D01*
X002619Y018423D01*
X002561Y018364D01*
X002561Y018247D01*
X002619Y018189D01*
X002561Y017686D02*
X002561Y017452D01*
X002911Y017452D01*
X002911Y017686D01*
X002736Y017569D02*
X002736Y017452D01*
X002911Y017318D02*
X002911Y017084D01*
X002561Y017084D01*
X002486Y018787D02*
X002486Y014787D01*
X000286Y014787D01*
X000286Y015287D01*
X000786Y015287D01*
X000786Y018287D01*
X000286Y018287D01*
X000286Y018787D01*
X002486Y018787D01*
X002486Y019091D02*
X002486Y023091D01*
X000286Y023091D01*
X000286Y022591D01*
X000786Y022591D01*
X000786Y019591D01*
X000286Y019591D01*
X000286Y022591D01*
X000286Y023394D02*
X000286Y023894D01*
X000786Y023894D01*
X000786Y026894D01*
X000286Y026894D01*
X000286Y027394D01*
X002486Y027394D01*
X002486Y023394D01*
X000286Y023394D01*
X000286Y023894D02*
X000286Y026894D01*
X002561Y026869D02*
X002911Y026869D01*
X002911Y026752D02*
X002911Y026986D01*
X002677Y026752D02*
X002561Y026869D01*
X002619Y026617D02*
X002561Y026559D01*
X002561Y026384D01*
X002911Y026384D01*
X002911Y026559D01*
X002853Y026617D01*
X002619Y026617D01*
X002561Y026249D02*
X002561Y026015D01*
X002911Y026015D01*
X002911Y026249D01*
X002736Y026132D02*
X002736Y026015D01*
X002911Y025881D02*
X002911Y025647D01*
X002561Y025647D01*
X002619Y022163D02*
X002561Y022104D01*
X002561Y021988D01*
X002619Y021929D01*
X002619Y021794D02*
X002561Y021736D01*
X002561Y021561D01*
X002911Y021561D01*
X002911Y021736D01*
X002853Y021794D01*
X002619Y021794D01*
X002911Y021929D02*
X002677Y022163D01*
X002619Y022163D01*
X002911Y022163D02*
X002911Y021929D01*
X002911Y021426D02*
X002911Y021193D01*
X002561Y021193D01*
X002561Y021426D01*
X002736Y021309D02*
X002736Y021193D01*
X002911Y021058D02*
X002911Y020824D01*
X002561Y020824D01*
X002486Y019091D02*
X000286Y019091D01*
X000286Y019591D01*
X000286Y018287D02*
X000286Y015287D01*
X000286Y014484D02*
X000286Y013984D01*
X000786Y013984D01*
X000786Y010984D01*
X000286Y010984D01*
X000286Y013984D01*
X000286Y014484D02*
X002486Y014484D01*
X002486Y010484D01*
X000286Y010484D01*
X000286Y010984D01*
X000286Y010181D02*
X000286Y009681D01*
X000786Y009681D01*
X000786Y006681D01*
X000286Y006681D01*
X000286Y009681D01*
X000286Y010181D02*
X002486Y010181D01*
X002486Y006181D01*
X000286Y006181D01*
X000286Y006681D01*
X002561Y006651D02*
X002911Y006651D01*
X002911Y006885D01*
X002911Y007019D02*
X002911Y007253D01*
X002911Y007388D02*
X002911Y007563D01*
X002853Y007621D01*
X002619Y007621D01*
X002561Y007563D01*
X002561Y007388D01*
X002911Y007388D01*
X002736Y007136D02*
X002736Y007019D01*
X002561Y007019D02*
X002911Y007019D01*
X002561Y007019D02*
X002561Y007253D01*
X002561Y007756D02*
X002736Y007756D01*
X002677Y007873D01*
X002677Y007931D01*
X002736Y007989D01*
X002853Y007989D01*
X002911Y007931D01*
X002911Y007814D01*
X002853Y007756D01*
X002561Y007756D02*
X002561Y007989D01*
X003422Y012411D02*
X003422Y012528D01*
X003422Y012469D02*
X003773Y012469D01*
X003773Y012411D02*
X003773Y012528D01*
X003714Y012656D02*
X003773Y012715D01*
X003773Y012832D01*
X003714Y012890D01*
X003773Y013025D02*
X003773Y013258D01*
X003773Y013141D02*
X003422Y013141D01*
X003539Y013025D01*
X003481Y012890D02*
X003422Y012832D01*
X003422Y012715D01*
X003481Y012656D01*
X003714Y012656D01*
X002911Y012753D02*
X002911Y012987D01*
X002911Y013122D02*
X002911Y013355D01*
X002911Y013490D02*
X002911Y013665D01*
X002853Y013724D01*
X002619Y013724D01*
X002561Y013665D01*
X002561Y013490D01*
X002911Y013490D01*
X002736Y013238D02*
X002736Y013122D01*
X002561Y013122D02*
X002911Y013122D01*
X002911Y012753D02*
X002561Y012753D01*
X002561Y013122D02*
X002561Y013355D01*
X002736Y013858D02*
X002736Y014092D01*
X002911Y014033D02*
X002561Y014033D01*
X002736Y013858D01*
X007685Y017576D02*
X007919Y017810D01*
X007919Y017868D01*
X007860Y017926D01*
X007744Y017926D01*
X007685Y017868D01*
X007685Y017576D02*
X007919Y017576D01*
X008054Y017751D02*
X008287Y017751D01*
X008422Y017635D02*
X008480Y017576D01*
X008597Y017576D01*
X008655Y017635D01*
X008655Y017693D01*
X008597Y017751D01*
X008539Y017751D01*
X008597Y017751D02*
X008655Y017810D01*
X008655Y017868D01*
X008597Y017926D01*
X008480Y017926D01*
X008422Y017868D01*
X010599Y017848D02*
X010657Y017907D01*
X010774Y017907D01*
X010832Y017848D01*
X010832Y017790D01*
X010774Y017732D01*
X010832Y017673D01*
X010832Y017615D01*
X010774Y017556D01*
X010657Y017556D01*
X010599Y017615D01*
X010715Y017732D02*
X010774Y017732D01*
X010967Y017732D02*
X011201Y017732D01*
X011335Y017732D02*
X011569Y017732D01*
X011510Y017907D02*
X011335Y017732D01*
X011510Y017907D02*
X011510Y017556D01*
X013591Y017751D02*
X013824Y017751D01*
X013959Y017751D02*
X014193Y017751D01*
X014327Y017751D02*
X014444Y017810D01*
X014503Y017810D01*
X014561Y017751D01*
X014561Y017635D01*
X014503Y017576D01*
X014386Y017576D01*
X014327Y017635D01*
X014327Y017751D02*
X014327Y017926D01*
X014561Y017926D01*
X013766Y017926D02*
X013766Y017576D01*
X013591Y017751D02*
X013766Y017926D01*
X014969Y025352D02*
X014969Y025652D01*
X015044Y025652D01*
X015119Y025577D01*
X015194Y025652D01*
X015269Y025577D01*
X015269Y025352D01*
X015119Y025352D02*
X015119Y025577D01*
X015429Y025502D02*
X015654Y025652D01*
X015813Y025652D02*
X015813Y025427D01*
X015888Y025352D01*
X016113Y025352D01*
X016113Y025652D01*
X016273Y025652D02*
X016273Y025352D01*
X016273Y025502D02*
X016423Y025652D01*
X016498Y025652D01*
X016657Y025577D02*
X016732Y025652D01*
X016957Y025652D01*
X016957Y025802D02*
X016957Y025352D01*
X016732Y025352D01*
X016657Y025427D01*
X016657Y025577D01*
X017117Y025652D02*
X017418Y025652D01*
X017117Y025352D01*
X017418Y025352D01*
X017578Y025352D02*
X017728Y025352D01*
X017653Y025352D02*
X017653Y025652D01*
X017578Y025652D01*
X017653Y025802D02*
X017653Y025877D01*
X017731Y026041D02*
X017731Y026341D01*
X017956Y026341D01*
X018031Y026266D01*
X018031Y026041D01*
X018267Y026116D02*
X018267Y026416D01*
X018192Y026341D02*
X018342Y026341D01*
X018498Y026341D02*
X018498Y026041D01*
X018498Y026191D02*
X018649Y026341D01*
X018724Y026341D01*
X018882Y026266D02*
X018882Y026116D01*
X018957Y026041D01*
X019107Y026041D01*
X019182Y026116D01*
X019182Y026266D01*
X019107Y026341D01*
X018957Y026341D01*
X018882Y026266D01*
X018880Y026730D02*
X019106Y026730D01*
X019106Y027030D01*
X019266Y027030D02*
X019266Y026730D01*
X019266Y026880D02*
X019416Y027030D01*
X019491Y027030D01*
X019649Y026955D02*
X019649Y026805D01*
X019724Y026730D01*
X019950Y026730D01*
X019950Y027180D01*
X019950Y027030D02*
X019724Y027030D01*
X019649Y026955D01*
X020110Y027030D02*
X020410Y027030D01*
X020110Y026730D01*
X020410Y026730D01*
X020570Y026730D02*
X020720Y026730D01*
X020645Y026730D02*
X020645Y027030D01*
X020570Y027030D01*
X020645Y027180D02*
X020645Y027255D01*
X020877Y026955D02*
X020952Y027030D01*
X021102Y027030D01*
X021177Y026955D01*
X021177Y026880D01*
X020877Y026880D01*
X020877Y026805D02*
X020877Y026955D01*
X020877Y026805D02*
X020952Y026730D01*
X021102Y026730D01*
X021338Y026730D02*
X021488Y026730D01*
X021413Y026730D02*
X021413Y027180D01*
X021338Y027180D01*
X021336Y026491D02*
X021486Y026491D01*
X021561Y026416D01*
X021261Y026116D01*
X021336Y026041D01*
X021486Y026041D01*
X021561Y026116D01*
X021561Y026416D01*
X021336Y026491D02*
X021261Y026416D01*
X021261Y026116D01*
X021106Y026116D02*
X021106Y026041D01*
X021031Y026041D01*
X021031Y026116D01*
X021106Y026116D01*
X020870Y026041D02*
X020570Y026041D01*
X020870Y026341D01*
X020870Y026416D01*
X020795Y026491D01*
X020645Y026491D01*
X020570Y026416D01*
X020410Y026341D02*
X020260Y026041D01*
X020110Y026341D01*
X020028Y025652D02*
X020103Y025577D01*
X020103Y025352D01*
X019953Y025352D02*
X019953Y025577D01*
X020028Y025652D01*
X019953Y025577D02*
X019878Y025652D01*
X019803Y025652D01*
X019803Y025352D01*
X019643Y025427D02*
X019643Y025577D01*
X019568Y025652D01*
X019418Y025652D01*
X019343Y025577D01*
X019343Y025427D01*
X019418Y025352D01*
X019568Y025352D01*
X019643Y025427D01*
X019182Y025352D02*
X018957Y025352D01*
X018882Y025427D01*
X018882Y025577D01*
X018957Y025652D01*
X019182Y025652D01*
X019343Y026041D02*
X019493Y026041D01*
X019418Y026041D02*
X019418Y026491D01*
X019343Y026491D01*
X018880Y026730D02*
X018805Y026805D01*
X018805Y027030D01*
X018645Y027180D02*
X018345Y026880D01*
X018420Y026955D02*
X018645Y026730D01*
X018345Y026730D02*
X018345Y027180D01*
X017653Y027180D02*
X017653Y026730D01*
X017578Y026730D02*
X017728Y026730D01*
X017418Y026880D02*
X017418Y026955D01*
X017342Y027030D01*
X017192Y027030D01*
X017117Y026955D01*
X017117Y026805D01*
X017192Y026730D01*
X017342Y026730D01*
X017418Y026880D02*
X017117Y026880D01*
X016957Y026880D02*
X016732Y026880D01*
X016657Y026805D01*
X016732Y026730D01*
X016957Y026730D01*
X016957Y026955D01*
X016882Y027030D01*
X016732Y027030D01*
X016497Y026955D02*
X016497Y026730D01*
X016497Y026955D02*
X016422Y027030D01*
X016272Y027030D01*
X016196Y026955D01*
X016036Y027030D02*
X015811Y027030D01*
X015736Y026955D01*
X015736Y026805D01*
X015811Y026730D01*
X016036Y026730D01*
X016196Y026730D02*
X016196Y027180D01*
X016115Y026491D02*
X015890Y026491D01*
X015890Y026041D01*
X016115Y026041D01*
X016190Y026116D01*
X016190Y026416D01*
X016115Y026491D01*
X015729Y026491D02*
X015429Y026491D01*
X015429Y026041D01*
X015729Y026041D01*
X015579Y026266D02*
X015429Y026266D01*
X015269Y026041D02*
X014969Y026041D01*
X014969Y026491D01*
X014969Y026730D02*
X014969Y027180D01*
X015119Y027030D01*
X015269Y027180D01*
X015269Y026730D01*
X015429Y026730D02*
X015579Y026730D01*
X015504Y026730D02*
X015504Y027030D01*
X015429Y027030D01*
X015504Y027180D02*
X015504Y027255D01*
X015429Y025802D02*
X015429Y025352D01*
X015429Y025502D02*
X015654Y025352D01*
X016810Y026116D02*
X016885Y026041D01*
X017036Y026041D01*
X017111Y026116D01*
X017271Y026116D02*
X017271Y026266D01*
X017346Y026341D01*
X017496Y026341D01*
X017571Y026266D01*
X017571Y026116D01*
X017496Y026041D01*
X017346Y026041D01*
X017271Y026116D01*
X017111Y026416D02*
X017036Y026491D01*
X016885Y026491D01*
X016810Y026416D01*
X016810Y026116D01*
X017578Y027180D02*
X017653Y027180D01*
X018267Y026116D02*
X018342Y026041D01*
X018345Y025802D02*
X018420Y025802D01*
X018420Y025352D01*
X018345Y025352D02*
X018495Y025352D01*
X018652Y025352D02*
X018727Y025352D01*
X018727Y025427D01*
X018652Y025427D01*
X018652Y025352D01*
X018185Y025502D02*
X017885Y025502D01*
X017885Y025577D02*
X017960Y025652D01*
X018110Y025652D01*
X018185Y025577D01*
X018185Y025502D01*
X018110Y025352D02*
X017960Y025352D01*
X017885Y025427D01*
X017885Y025577D01*
X020715Y023710D02*
X020715Y023476D01*
X020773Y023341D02*
X020890Y023341D01*
X020949Y023283D01*
X020949Y023108D01*
X021065Y023108D02*
X020715Y023108D01*
X020715Y023283D01*
X020773Y023341D01*
X021007Y023476D02*
X020773Y023710D01*
X020715Y023710D01*
X021007Y023476D02*
X021065Y023476D01*
X020715Y022973D02*
X020715Y022856D01*
X020715Y022915D02*
X021007Y022915D01*
X021065Y022856D01*
X021065Y022798D01*
X021007Y022739D01*
X021000Y019448D02*
X020942Y019448D01*
X020883Y019389D01*
X020883Y019214D01*
X021000Y019214D01*
X021058Y019273D01*
X021058Y019389D01*
X021000Y019448D01*
X020767Y019331D02*
X020883Y019214D01*
X020883Y019079D02*
X020942Y019021D01*
X020942Y018846D01*
X021058Y018846D02*
X020708Y018846D01*
X020708Y019021D01*
X020767Y019079D01*
X020883Y019079D01*
X020767Y019331D02*
X020708Y019448D01*
X020708Y018711D02*
X020708Y018594D01*
X020708Y018653D02*
X021000Y018653D01*
X021058Y018594D01*
X021058Y018536D01*
X021000Y018478D01*
X019726Y015505D02*
X019726Y015271D01*
X019726Y015388D02*
X019376Y015388D01*
X019492Y015271D01*
X019434Y015136D02*
X019376Y015078D01*
X019376Y014961D01*
X019434Y014903D01*
X019492Y014903D01*
X019551Y014961D01*
X019551Y015078D01*
X019609Y015136D01*
X019667Y015136D01*
X019726Y015078D01*
X019726Y014961D01*
X019667Y014903D01*
X005062Y031267D02*
X004829Y031267D01*
X004946Y031267D02*
X004946Y031617D01*
X004829Y031500D01*
X004694Y031500D02*
X004636Y031442D01*
X004460Y031442D01*
X004460Y031267D02*
X004460Y031617D01*
X004636Y031617D01*
X004694Y031559D01*
X004694Y031500D01*
X004636Y031442D02*
X004694Y031383D01*
X004694Y031325D01*
X004636Y031267D01*
X004460Y031267D01*
X004326Y031267D02*
X004092Y031267D01*
X004092Y031325D01*
X004326Y031559D01*
X004326Y031617D01*
X004092Y031617D01*
D12*
X012286Y017354D02*
X012286Y016961D01*
X011204Y016961D01*
X011204Y014795D01*
X014353Y014795D01*
X014353Y016961D01*
X013271Y016961D01*
X013271Y017354D01*
X012286Y017354D01*
X012286Y016961D02*
X013271Y016961D01*
D13*
X013467Y017354D02*
X014747Y017354D01*
X014747Y017846D01*
X015042Y017846D01*
X013467Y017846D02*
X013467Y017354D01*
X013467Y017846D02*
X013074Y017846D01*
X012089Y017846D02*
X011794Y017846D01*
X011794Y017354D01*
X010416Y017354D01*
X010416Y017846D01*
X010023Y017846D01*
X009235Y017846D02*
X008841Y017846D01*
X008841Y017354D01*
X007463Y017354D01*
X007463Y017846D01*
X007070Y017846D01*
X005987Y017846D02*
X005692Y017846D01*
X005692Y017354D01*
X004314Y017354D01*
X004314Y017846D01*
X004215Y017846D01*
D14*
X003133Y019612D02*
X003133Y020412D01*
X002733Y020012D02*
X003533Y020012D01*
X001686Y018287D02*
X000886Y018287D01*
X001286Y017887D02*
X001286Y018687D01*
X001286Y022191D02*
X001286Y022991D01*
X000886Y022591D02*
X001686Y022591D01*
X001286Y026494D02*
X001286Y027294D01*
X000886Y026894D02*
X001686Y026894D01*
X006345Y016822D02*
X006345Y016122D01*
X005995Y016472D02*
X006695Y016472D01*
X006775Y016461D02*
X007475Y016461D01*
X007319Y016461D02*
X008119Y016461D01*
X007719Y016061D02*
X007719Y016861D01*
X007125Y016811D02*
X007125Y016111D01*
X008528Y016461D02*
X009328Y016461D01*
X009299Y016461D02*
X009999Y016461D01*
X009649Y016111D02*
X009649Y016811D01*
X008928Y016861D02*
X008928Y016061D01*
X009109Y014900D02*
X009109Y014100D01*
X008709Y014500D02*
X009509Y014500D01*
X010300Y013413D02*
X011100Y013413D01*
X010700Y013013D02*
X010700Y013813D01*
X012367Y015870D02*
X013167Y015870D01*
X012767Y015470D02*
X012767Y016270D01*
X013322Y011861D02*
X013322Y011061D01*
X012922Y011461D02*
X013722Y011461D01*
X015093Y007235D02*
X015093Y006435D01*
X014693Y006835D02*
X015493Y006835D01*
X015881Y004030D02*
X015881Y003230D01*
X015481Y003630D02*
X016281Y003630D01*
X018484Y006035D02*
X019278Y006035D01*
X018881Y005638D02*
X018881Y006432D01*
X018881Y008293D02*
X018881Y009093D01*
X018481Y008693D02*
X019281Y008693D01*
X020056Y009677D02*
X020856Y009677D01*
X020456Y009277D02*
X020456Y010077D01*
X019281Y011350D02*
X018481Y011350D01*
X018881Y010950D02*
X018881Y011750D01*
X020056Y012335D02*
X020856Y012335D01*
X020456Y011935D02*
X020456Y012735D01*
X020062Y014789D02*
X020062Y015589D01*
X019662Y015189D02*
X020462Y015189D01*
X020849Y017348D02*
X020849Y018148D01*
X020449Y017748D02*
X021249Y017748D01*
X020849Y024238D02*
X020849Y025038D01*
X020449Y024638D02*
X021249Y024638D01*
X015017Y027409D02*
X014217Y027409D01*
X014617Y027009D02*
X014617Y027809D01*
X004259Y010758D02*
X004259Y009958D01*
X003859Y010358D02*
X004659Y010358D01*
X001686Y009681D02*
X000886Y009681D01*
X001286Y009281D02*
X001286Y010081D01*
X001286Y013584D02*
X001286Y014384D01*
X000886Y013984D02*
X001686Y013984D01*
X008540Y007118D02*
X009340Y007118D01*
X008940Y006718D02*
X008940Y007518D01*
X010736Y007024D02*
X011270Y007024D01*
X011003Y007290D02*
X011003Y006757D01*
X012105Y004908D02*
X012105Y004108D01*
X011705Y004508D02*
X012505Y004508D01*
X007903Y000500D02*
X007103Y000500D01*
X007503Y000100D02*
X007503Y000900D01*
X004837Y003378D02*
X004184Y003378D01*
X004511Y003051D02*
X004511Y003705D01*
X020056Y007020D02*
X020856Y007020D01*
X020456Y006620D02*
X020456Y007420D01*
D15*
X016384Y007535D02*
X016384Y006135D01*
X013803Y006135D01*
X013803Y007535D01*
X016384Y007535D01*
X016599Y017248D02*
X016349Y017498D01*
X016349Y017998D01*
X016599Y018248D01*
X017099Y018248D01*
X017349Y017998D01*
X017599Y018248D01*
X018099Y018248D01*
X018349Y017998D01*
X018599Y018248D01*
X019099Y018248D01*
X019349Y017998D01*
X019599Y018248D01*
X020099Y018248D01*
X020349Y017998D01*
X020599Y018248D01*
X021099Y018248D01*
X021349Y017998D01*
X021349Y017498D01*
X021099Y017248D01*
X020599Y017248D01*
X020349Y017498D01*
X020099Y017248D01*
X019599Y017248D01*
X019349Y017498D01*
X019099Y017248D01*
X018599Y017248D01*
X018349Y017498D01*
X018099Y017248D01*
X017599Y017248D01*
X017349Y017498D01*
X017099Y017248D01*
X016599Y017248D01*
X014617Y022587D02*
X014322Y022587D01*
X014322Y023571D01*
X014105Y023571D01*
X014105Y022587D02*
X014322Y022587D01*
X014617Y022587D02*
X014617Y032232D01*
X014322Y032232D01*
X014105Y032232D01*
X014322Y032232D02*
X014322Y031248D01*
X014105Y031248D01*
X016599Y025138D02*
X017099Y025138D01*
X017349Y024888D01*
X017599Y025138D01*
X018099Y025138D01*
X018349Y024888D01*
X018599Y025138D01*
X019099Y025138D01*
X019349Y024888D01*
X019599Y025138D01*
X020099Y025138D01*
X020349Y024888D01*
X020599Y025138D01*
X021099Y025138D01*
X021349Y024888D01*
X021349Y024388D01*
X021099Y024138D01*
X020599Y024138D01*
X020349Y024388D01*
X020099Y024138D01*
X019599Y024138D01*
X019349Y024388D01*
X019099Y024138D01*
X018599Y024138D01*
X018349Y024388D01*
X018099Y024138D01*
X017599Y024138D01*
X017349Y024388D01*
X017099Y024138D01*
X016599Y024138D01*
X016349Y024388D01*
X016349Y024888D01*
X016599Y025138D01*
X006507Y023571D02*
X006251Y023571D01*
X006251Y022587D01*
X006507Y022587D01*
X006251Y022587D02*
X003751Y025441D01*
X003751Y029378D01*
X006251Y032232D01*
X006251Y031248D01*
X006507Y031248D01*
X006507Y032232D02*
X006251Y032232D01*
X005105Y012130D02*
X003412Y012130D01*
X003412Y008587D01*
X005105Y008587D01*
X005105Y012130D01*
X004712Y008862D02*
X004714Y008883D01*
X004720Y008903D01*
X004729Y008923D01*
X004741Y008940D01*
X004756Y008954D01*
X004774Y008966D01*
X004794Y008974D01*
X004814Y008979D01*
X004835Y008980D01*
X004856Y008977D01*
X004876Y008971D01*
X004895Y008960D01*
X004912Y008947D01*
X004925Y008931D01*
X004936Y008913D01*
X004944Y008893D01*
X004948Y008873D01*
X004948Y008851D01*
X004944Y008831D01*
X004936Y008811D01*
X004925Y008793D01*
X004912Y008777D01*
X004895Y008764D01*
X004876Y008753D01*
X004856Y008747D01*
X004835Y008744D01*
X004814Y008745D01*
X004794Y008750D01*
X004774Y008758D01*
X004756Y008770D01*
X004741Y008784D01*
X004729Y008801D01*
X004720Y008821D01*
X004714Y008841D01*
X004712Y008862D01*
X005731Y005894D02*
X006558Y005894D01*
X005731Y005894D02*
X005731Y001681D01*
X009274Y001681D01*
X009274Y003768D01*
X009274Y005618D02*
X009274Y005894D01*
X008448Y005894D01*
X008586Y006862D02*
X009137Y006862D01*
X009137Y007374D01*
X008586Y007374D01*
X009137Y007374D02*
X009294Y007374D01*
X009294Y006862D02*
X009137Y006862D01*
D16*
X006230Y002655D02*
X006180Y002655D01*
X006155Y002630D01*
X006108Y002655D02*
X006058Y002655D01*
X006083Y002655D02*
X006083Y002530D01*
X006058Y002505D01*
X006033Y002505D01*
X006008Y002530D01*
X006155Y002505D02*
X006255Y002605D01*
X006255Y002630D01*
X006230Y002655D01*
X006255Y002505D02*
X006155Y002505D01*
D17*
X010491Y002894D02*
X010491Y005807D01*
X010806Y006122D01*
X011760Y006024D02*
X011685Y006005D01*
X011611Y005982D01*
X011538Y005955D01*
X011467Y005925D01*
X011397Y005892D01*
X011329Y005855D01*
X011262Y005814D01*
X011198Y005771D01*
X011136Y005724D01*
X011077Y005674D01*
X011020Y005621D01*
X010966Y005566D01*
X010914Y005508D01*
X010866Y005447D01*
X010821Y005384D01*
X010778Y005319D01*
X010740Y005252D01*
X010704Y005183D01*
X010672Y005112D01*
X010644Y005040D01*
X010619Y004967D01*
X010598Y004892D01*
X010581Y004816D01*
X010567Y004740D01*
X010558Y004663D01*
X010552Y004586D01*
X010550Y004508D01*
X010552Y004430D01*
X010558Y004353D01*
X010567Y004276D01*
X010581Y004200D01*
X010598Y004124D01*
X010619Y004049D01*
X010644Y003976D01*
X010672Y003904D01*
X010704Y003833D01*
X010740Y003764D01*
X010778Y003697D01*
X010821Y003632D01*
X010866Y003569D01*
X010914Y003508D01*
X010966Y003450D01*
X011020Y003395D01*
X011077Y003342D01*
X011136Y003292D01*
X011198Y003245D01*
X011262Y003202D01*
X011329Y003161D01*
X011397Y003124D01*
X011467Y003091D01*
X011538Y003061D01*
X011611Y003034D01*
X011685Y003011D01*
X011760Y002992D01*
X011780Y002894D02*
X010491Y002894D01*
X012450Y002992D02*
X012525Y003011D01*
X012599Y003034D01*
X012672Y003061D01*
X012743Y003091D01*
X012813Y003124D01*
X012881Y003161D01*
X012948Y003202D01*
X013012Y003245D01*
X013074Y003292D01*
X013133Y003342D01*
X013190Y003395D01*
X013244Y003450D01*
X013296Y003508D01*
X013344Y003569D01*
X013389Y003632D01*
X013432Y003697D01*
X013470Y003764D01*
X013506Y003833D01*
X013538Y003904D01*
X013566Y003976D01*
X013591Y004049D01*
X013612Y004124D01*
X013629Y004200D01*
X013643Y004276D01*
X013652Y004353D01*
X013658Y004430D01*
X013660Y004508D01*
X013658Y004586D01*
X013652Y004663D01*
X013643Y004740D01*
X013629Y004816D01*
X013612Y004892D01*
X013591Y004967D01*
X013566Y005040D01*
X013538Y005112D01*
X013506Y005183D01*
X013470Y005252D01*
X013432Y005319D01*
X013389Y005384D01*
X013344Y005447D01*
X013296Y005508D01*
X013244Y005566D01*
X013190Y005621D01*
X013133Y005674D01*
X013074Y005724D01*
X013012Y005771D01*
X012948Y005814D01*
X012881Y005855D01*
X012813Y005892D01*
X012743Y005925D01*
X012672Y005955D01*
X012599Y005982D01*
X012525Y006005D01*
X012450Y006024D01*
X013404Y006122D02*
X013719Y005807D01*
X013719Y002894D01*
X012440Y002894D01*
X015054Y002803D02*
X015054Y004142D01*
X015369Y004457D01*
X016225Y004319D02*
X016273Y004292D01*
X016319Y004262D01*
X016363Y004229D01*
X016404Y004193D01*
X016443Y004154D01*
X016479Y004113D01*
X016511Y004069D01*
X016541Y004022D01*
X016567Y003974D01*
X016590Y003924D01*
X016609Y003873D01*
X016624Y003820D01*
X016636Y003766D01*
X016644Y003712D01*
X016648Y003657D01*
X016648Y003603D01*
X016644Y003548D01*
X016636Y003494D01*
X016624Y003440D01*
X016609Y003387D01*
X016590Y003336D01*
X016567Y003286D01*
X016541Y003238D01*
X016511Y003191D01*
X016479Y003147D01*
X016443Y003106D01*
X016404Y003067D01*
X016363Y003031D01*
X016319Y002998D01*
X016273Y002968D01*
X016225Y002941D01*
X016235Y002803D02*
X016708Y002803D01*
X016708Y004142D01*
X016393Y004457D01*
X015536Y004319D02*
X015488Y004292D01*
X015442Y004262D01*
X015398Y004229D01*
X015357Y004193D01*
X015318Y004154D01*
X015282Y004113D01*
X015250Y004069D01*
X015220Y004022D01*
X015194Y003974D01*
X015171Y003924D01*
X015152Y003873D01*
X015137Y003820D01*
X015125Y003766D01*
X015117Y003712D01*
X015113Y003657D01*
X015113Y003603D01*
X015117Y003548D01*
X015125Y003494D01*
X015137Y003440D01*
X015152Y003387D01*
X015171Y003336D01*
X015194Y003286D01*
X015220Y003238D01*
X015250Y003191D01*
X015282Y003147D01*
X015318Y003106D01*
X015357Y003067D01*
X015398Y003031D01*
X015442Y002998D01*
X015488Y002968D01*
X015536Y002941D01*
X015526Y002803D02*
X015054Y002803D01*
X011074Y013020D02*
X010562Y013020D01*
X010562Y014280D02*
X011074Y014280D01*
D18*
X009649Y016461D03*
X007719Y016461D03*
X006345Y016472D03*
D19*
X007113Y016461D02*
X007137Y016461D01*
D20*
X011942Y012841D02*
X011942Y010081D01*
X014702Y010081D01*
X014702Y012701D01*
X014562Y012841D01*
X011942Y012841D01*
X014261Y012541D02*
X014263Y012564D01*
X014269Y012587D01*
X014278Y012608D01*
X014291Y012628D01*
X014307Y012645D01*
X014325Y012659D01*
X014345Y012670D01*
X014367Y012678D01*
X014390Y012682D01*
X014414Y012682D01*
X014437Y012678D01*
X014459Y012670D01*
X014479Y012659D01*
X014497Y012645D01*
X014513Y012628D01*
X014526Y012608D01*
X014535Y012587D01*
X014541Y012564D01*
X014543Y012541D01*
X014541Y012518D01*
X014535Y012495D01*
X014526Y012474D01*
X014513Y012454D01*
X014497Y012437D01*
X014479Y012423D01*
X014459Y012412D01*
X014437Y012404D01*
X014414Y012400D01*
X014390Y012400D01*
X014367Y012404D01*
X014345Y012412D01*
X014325Y012423D01*
X014307Y012437D01*
X014291Y012454D01*
X014278Y012474D01*
X014269Y012495D01*
X014263Y012518D01*
X014261Y012541D01*
X019962Y014139D02*
X019962Y014439D01*
X020062Y014439D01*
X020062Y014889D01*
X020162Y014889D01*
X020162Y015489D01*
X020062Y015489D01*
X020062Y015889D01*
X019962Y015889D01*
X019962Y016239D01*
X020062Y016239D01*
X020062Y016539D01*
X020262Y016539D01*
X020062Y016639D02*
X021462Y016639D01*
X021462Y016189D01*
X021462Y013739D01*
X020062Y013739D01*
X020062Y013839D02*
X020262Y013839D01*
X020062Y013839D02*
X020062Y014139D01*
X019962Y014139D01*
X020862Y013839D02*
X021362Y013839D01*
X021362Y014939D01*
X021362Y015439D01*
X021362Y016539D01*
X020862Y016539D01*
X021462Y016189D02*
X021562Y016189D01*
X021562Y015689D01*
X021712Y015689D01*
X021712Y014689D01*
X021562Y014689D01*
X021562Y015689D01*
X021362Y015439D02*
X020962Y015439D01*
X020962Y014939D01*
X021362Y014939D01*
X021562Y014689D02*
X021562Y014189D01*
X021462Y014189D01*
D21*
X018881Y011350D03*
X018881Y008693D03*
X018881Y006035D03*
M02*
