%
M48
M72
T01C0.0236
T02C0.0354
T03C0.0400
T04C0.0551
T05C0.0590
T06C0.1102
T07C0.1180
%
T01
X3330Y6921
X3330Y7709
X6184Y8594
X7365Y9776
X7267Y10661
X8054Y12236
X8940Y11350
X9334Y10673
X9727Y10268
X10416Y10268
X11007Y9771
X9727Y8594
X9727Y11843
X10349Y12138
X10975Y12563
X10318Y15189
X10219Y16272
X8349Y16272
X7660Y15287
X5593Y15091
X5101Y15976
X2739Y22472
X3192Y24894
X13074Y23654
X13763Y26016
X17652Y20752
X19767Y20799
X20849Y21980
X20160Y22374
X21341Y23063
X16026Y16075
X15436Y16567
X15042Y13909
X15534Y13122
X14353Y13909
X13566Y14106
X14156Y12236
X13566Y11449
X16322Y8594
X17306Y8693
X19176Y9972
X19078Y12827
X21341Y13024
X14845Y4657
T02
X15062Y18512
X14062Y18512
X13062Y18512
X12062Y18512
X11062Y18512
X10062Y18512
X9062Y18512
X8062Y18512
X7062Y18512
X6062Y18512
X5062Y18512
X4062Y18512
X4062Y21512
X5062Y21512
X6062Y21512
X7062Y21512
X8062Y21512
X9062Y21512
X10062Y21512
X11062Y21512
X12062Y21512
X13062Y21512
X14062Y21512
X15062Y21512
T03
X16849Y24638
X17849Y24638
X18849Y24638
X19849Y24638
X20849Y24638
X20849Y17748
X19849Y17748
X18849Y17748
X17849Y17748
X16849Y17748
X13767Y16370
X13767Y15370
X12767Y15370
X12767Y16370
X11767Y16370
X11767Y15370
X20552Y16079
X20552Y14299
X1286Y13984
X1286Y12984
X1286Y11984
X1286Y10984
X1286Y9681
X1286Y8681
X1286Y7681
X1286Y6681
X1286Y15287
X1286Y16287
X1286Y17287
X1286Y18287
X1286Y19591
X1286Y20591
X1286Y21591
X1286Y22591
X1286Y23894
X1286Y24894
X1286Y25894
X1286Y26894
T04
X4511Y3378
X4511Y5134
T05
X19572Y13809
X19572Y16569
T06
X17479Y6996
X4979Y6996
X4980Y28246
X17480Y28246
T07
X7503Y5894
X7503Y3531
X9353Y4713
M30
